<?xml version="1.0" encoding="utf-8"?>
<!-- Generator: Adobe Illustrator 16.0.0, SVG Export Plug-In . SVG Version: 6.00 Build 0)  -->
<!DOCTYPE svg PUBLIC "-//W3C//DTD SVG 1.1//EN" "http://www.w3.org/Graphics/SVG/1.1/DTD/svg11.dtd">
<svg version="1.1" id="Layer_1" xmlns="http://www.w3.org/2000/svg" xmlns:xlink="http://www.w3.org/1999/xlink" x="0px" y="0px"
	 width="394px" height="67px" viewBox="0 0 394 67" enable-background="new 0 0 394 67" xml:space="preserve">
<g>
	<path fill="#FFFFFF" d="M51.121,13.954c0-9.036-6.86-13.428-20.972-13.428H0.18v43.53h9.061V27.647h18.294l14.886,16.408h11.167
		L38.14,26.989C48.804,25.016,51.121,18.896,51.121,13.954 M9.241,8.395h20.181c10.458,0,12.441,2.047,12.441,5.825
		c0,3.636-2.082,5.89-12.441,5.89H9.241V8.395z"/>
	<path fill="#FFFFFF" d="M101.336-0.732L71.245,44.056h9.72l5.359-8.006h31.889l5.492,8.006h10.068L103.056-0.732H101.336z
		 M112.835,28.247H91.539l10.538-15.669L112.835,28.247z"/>
	<polygon fill="#FFFFFF" points="169.415,31.653 148.448,0.525 137.713,0.525 168.43,45.312 170.149,45.312 200.24,0.525 
		190.188,0.525 	"/>
	<rect x="223.144" y="0.525" fill="#FFFFFF" width="9.061" height="43.53"/>
	<path fill="#FFFFFF" d="M283.548,26.788h20.51v6.746c-3.879,2.496-9.234,3.711-16.344,3.711c-13.445,0-19.981-4.892-19.981-14.955
		c0-9.878,6.723-14.888,19.981-14.888c9.92,0,14.369,2.037,18.001,5.095l0.882,0.743l5.053-6.339l-0.868-0.702
		c-5.481-4.428-12.556-6.402-22.935-6.402c-18.201,0-29.507,8.669-29.507,22.625c0,14.043,11.03,22.427,29.507,22.427
		c10.622,0,18.814-2.406,24.35-7.151l0.393-0.336V18.918h-29.041V26.788z"/>
	<path fill="#FFFFFF" d="M363.068-0.732h-1.72l-30.091,44.788h9.72l5.359-8.006h31.89l5.491,8.006h10.068L363.068-0.732z
		 M372.848,28.247h-21.297l10.537-15.669L372.848,28.247z"/>
	<path fill="#FFFFFF" d="M10.966,57.684c-0.293-1.832-1.721-3.352-4.468-3.352c-3.076,0-5.053,1.758-5.053,5.347
		c0,2.473,1.335,5.018,4.944,5.018c2.29,0,4.009-1.08,4.578-3.644h1.94c-0.292,2.893-2.82,5.328-6.536,5.328
		c-3.297,0-6.868-1.831-6.868-6.904c0-3.809,2.381-6.829,6.849-6.829c2.638,0,6.208,1.135,6.555,5.036H10.966z"/>
	<path fill="#FFFFFF" d="M32.97,62.243h-6.409l-1.666,3.808h-2.088l5.915-13.073h2.216l5.915,13.073h-2.216L32.97,62.243z
		 M29.747,54.771l-2.454,5.787h4.963L29.747,54.771z"/>
	<path fill="#FFFFFF" d="M47.412,52.978h6.739c2.875,0,4.377,1.317,4.377,3.753c0,2.453-1.502,4.084-4.249,4.084h-4.925v5.236
		h-1.941V52.978z M54.022,59.13c1.922,0,2.563-1.044,2.563-2.362c0-1.245-0.732-2.106-2.215-2.106h-5.017v4.469H54.022z"/>
	<rect x="69.874" y="52.978" fill="#FFFFFF" width="1.941" height="13.073"/>
	<polygon fill="#FFFFFF" points="87.504,54.661 82.561,54.661 82.561,52.978 94.39,52.978 94.39,54.661 89.445,54.661 
		89.445,66.051 87.504,66.051 	"/>
	<path fill="#FFFFFF" d="M112.971,62.243h-6.409l-1.666,3.808h-2.088l5.915-13.073h2.215l5.915,13.073h-2.216L112.971,62.243z
		 M109.748,54.771l-2.454,5.787h4.963L109.748,54.771z"/>
	<polygon fill="#FFFFFF" points="127.412,52.978 129.354,52.978 129.354,64.367 137.301,64.367 137.301,66.051 127.412,66.051 	"/>
	<polygon fill="#FFFFFF" points="176.441,52.978 179.133,52.978 179.133,66.051 177.192,66.051 177.192,55.211 177.155,55.211 
		172.065,66.051 170.343,66.051 165.271,55.431 165.234,55.431 165.234,66.051 163.294,66.051 163.294,52.978 166.022,52.978 
		171.204,63.817 	"/>
	<path fill="#FFFFFF" d="M199.781,62.243h-6.409l-1.666,3.808h-2.088l5.915-13.073h2.215l5.915,13.073h-2.216L199.781,62.243z
		 M196.558,54.771l-2.454,5.787h4.963L196.558,54.771z"/>
	<polygon fill="#FFFFFF" points="216.2,55.65 216.163,55.65 216.163,66.051 214.223,66.051 214.223,52.978 216.476,52.978 
		224.881,63.378 224.916,63.378 224.916,52.978 226.858,52.978 226.858,66.051 224.605,66.051 	"/>
	<path fill="#FFFFFF" d="M247.58,62.243h-6.409l-1.667,3.808h-2.087l5.914-13.073h2.217l5.914,13.073h-2.216L247.58,62.243z
		 M244.357,54.771l-2.454,5.787h4.962L244.357,54.771z"/>
	<path fill="#FFFFFF" d="M269.108,59.001h6.006v7.05h-1.392l-0.329-1.867c-0.861,1.007-2.253,2.197-5.018,2.197
		c-5.237,0-6.904-3.772-6.904-6.647c0-5.054,3.461-7.086,6.849-7.086c2.674,0,5.75,0.86,6.574,4.449h-2.051
		c-0.604-1.831-1.942-2.764-4.432-2.764c-3.462,0-4.999,2.453-4.999,5.236c0,3.698,2.362,5.127,5.09,5.127
		c2.839,0,4.688-1.685,4.891-4.011h-4.285V59.001z"/>
	<polygon fill="#FFFFFF" points="287.029,52.978 297.539,52.978 297.539,54.661 288.97,54.661 288.97,58.452 297.283,58.452 
		297.283,60.137 288.97,60.137 288.97,64.367 297.723,64.367 297.723,66.051 287.029,66.051 	"/>
	<polygon fill="#FFFFFF" points="322.218,52.978 324.909,52.978 324.909,66.051 322.969,66.051 322.969,55.211 322.932,55.211 
		317.841,66.051 316.119,66.051 311.047,55.431 311.011,55.431 311.011,66.051 309.07,66.051 309.07,52.978 311.799,52.978 
		316.98,63.817 	"/>
	<polygon fill="#FFFFFF" points="336.878,52.978 347.389,52.978 347.389,54.661 338.818,54.661 338.818,58.452 347.132,58.452 
		347.132,60.137 338.818,60.137 338.818,64.367 347.571,64.367 347.571,66.051 336.878,66.051 	"/>
	<polygon fill="#FFFFFF" points="360.97,55.65 360.934,55.65 360.934,66.051 358.993,66.051 358.993,52.978 361.245,52.978 
		369.65,63.378 369.687,63.378 369.687,52.978 371.627,52.978 371.627,66.051 369.375,66.051 	"/>
	<polygon fill="#FFFFFF" points="387.223,54.661 382.277,54.661 382.277,52.978 394.107,52.978 394.107,54.661 389.163,54.661 
		389.163,66.051 387.223,66.051 	"/>
</g>
</svg>
