<?xml version="1.0" encoding="utf-8"?>
<!-- Generator: Adobe Illustrator 16.0.0, SVG Export Plug-In . SVG Version: 6.00 Build 0)  -->
<!DOCTYPE svg PUBLIC "-//W3C//DTD SVG 1.1//EN" "http://www.w3.org/Graphics/SVG/1.1/DTD/svg11.dtd">
<svg version="1.1" id="Layer_1" xmlns="http://www.w3.org/2000/svg" xmlns:xlink="http://www.w3.org/1999/xlink" x="0px" y="0px"
	 width="204px" height="204px" viewBox="0 0 204 204" enable-background="new 0 0 204 204" xml:space="preserve">
<g id="consumer">
	<g>
		<path fill="none" stroke="#A69E9A" stroke-width="2" stroke-miterlimit="10" d="M30.881,119.859l12.926,55.086
			c1.382,5.89,7.463,10.69,13.513,10.668l11.626-0.043c6.05-0.022,15.95-0.033,22-0.023l55.836,0.09
			c6.05,0.01,12.131-4.802,13.513-10.691l12.927-55.104"/>
	</g>
	<g>
		<path fill="none" stroke="#A69E9A" stroke-width="2" stroke-miterlimit="10" d="M173.113,120.307l11.627-46.979l-37.211-0.049
			l0.016,0.062c0.217,1.292,0.314,2.435,0.314,3.805c0,10.964-7.279,19.852-16.26,19.852s-16.26-8.888-16.26-19.852
			c0-1.353,0.129-2.073,0.34-3.35l-0.322,0.232H89.545c0.217,1,0.314,2.138,0.314,3.508c0,10.964-7.279,19.656-16.26,19.656
			s-16.26-8.985-16.26-19.949c0-1.353,0.104-2.782,0.314-4.059l-0.123-0.007l-38.27-0.057l12.243,49.308"/>
	</g>
	<g>
		<path fill="none" stroke="#A69E9A" stroke-width="2" stroke-miterlimit="10" d="M66.885,82.857c0,0,0.009-14.516,0.021-32.258
			s15.771-32.248,35.021-32.236l1.328,0.001c19.25,0.012,34.991,14.756,34.979,32.763s-0.021,32.741-0.021,32.741"/>
	</g>
	<g>
		<path fill="none" stroke="#A69E9A" stroke-width="2" stroke-miterlimit="10" d="M80.074,83.842l0.02-31.141
			c0.007-12.1,9.914-21.994,22.014-21.986l0.951,0.001c12.1,0.007,21.994,9.914,21.986,22.014l-0.019,30.298"/>
	</g>
	<path fill="none" stroke="#A69E9A" stroke-width="2" stroke-miterlimit="10" d="M138.266,83.578c-1.1,2.816-3.596,4.784-6.5,4.784
		c-3.207,0-5.916-2.398-6.794-5.691"/>
	<path fill="none" stroke="#A69E9A" stroke-width="2" stroke-miterlimit="10" d="M80.115,83.578
		c-1.099,2.816-3.595,4.784-6.499,4.784c-3.207,0-5.916-2.398-6.794-5.691"/>
</g>
</svg>
