<?xml version="1.0" encoding="utf-8"?>
<!-- Generator: Adobe Illustrator 16.0.0, SVG Export Plug-In . SVG Version: 6.00 Build 0)  -->
<!DOCTYPE svg PUBLIC "-//W3C//DTD SVG 1.1//EN" "http://www.w3.org/Graphics/SVG/1.1/DTD/svg11.dtd">
<svg version="1.1" id="Layer_1" xmlns="http://www.w3.org/2000/svg" xmlns:xlink="http://www.w3.org/1999/xlink" x="0px" y="0px"
	 width="204px" height="204px" viewBox="0 0 204 204" enable-background="new 0 0 204 204" xml:space="preserve">
<g id="financial">
	<circle fill="none" stroke="#A69E9A" stroke-width="2" stroke-miterlimit="10" cx="102" cy="102" r="72.222"/>
	<circle fill="none" stroke="#A69E9A" stroke-width="2" stroke-miterlimit="10" cx="102" cy="102" r="82.56"/>
	<path fill="none" stroke="#A69E9A" stroke-width="2" stroke-miterlimit="10" d="M96.548,141.487
		c-5.158-0.991-9.434-2.994-12.826-6.282c-4.856-4.706-7.284-11.272-7.284-19.272H89.28c0.416,3,1.233,6.182,2.452,7.972
		c2.23,3.257,6.051,4.817,11.461,4.817c3.24,0,5.873-0.463,7.895-1.322c3.836-1.646,5.752-4.723,5.752-9.197
		c0-2.612-0.939-4.644-2.816-6.075c-1.881-1.396-4.859-2.635-8.939-3.708l-6.97-1.882c-6.851-1.86-11.558-3.884-14.119-6.067
		c-4.34-3.65-6.509-9.359-6.509-17.127c0-7.087,2.122-12.974,6.367-17.663c3.147-3.477,7.389-5.665,12.724-6.563 M104.658,58.718
		c5.969,0.41,11.127,2.801,15.475,6.764c4.85,4.42,7.391,10.451,7.627,19.451h-12.928c-0.24-5-1.971-8.347-5.195-10.352
		c-2.148-1.324-4.82-2.089-8.014-2.089c-3.554,0-6.389,0.808-8.509,2.526c-2.12,1.718-3.179,4.09-3.179,7.168
		c0,2.828,1.045,4.927,3.135,6.322c1.343,0.932,4.193,2.016,8.553,3.269l11.299,3.272c4.951,1.432,8.662,3.345,11.135,5.742
		c3.838,3.723,5.756,9.109,5.756,16.159c0,7.229-2.273,13.233-6.82,18.012c-4.398,4.622-10.188,7.007-18.1,7.157"/>
	<polyline fill="none" stroke="#A69E9A" stroke-width="2" stroke-miterlimit="10" points="105.064,59.171 105.064,50.433 
		97.064,50.433 97.067,59.009 96.323,59.171 	"/>
	<polyline fill="none" stroke="#A69E9A" stroke-width="2" stroke-miterlimit="10" points="96.909,141.011 96.861,152.433 
		104.906,152.433 104.955,141.62 	"/>
</g>
</svg>
