<?xml version="1.0" encoding="utf-8"?>
<!-- Generator: Adobe Illustrator 16.0.0, SVG Export Plug-In . SVG Version: 6.00 Build 0)  -->
<!DOCTYPE svg PUBLIC "-//W3C//DTD SVG 1.1//EN" "http://www.w3.org/Graphics/SVG/1.1/DTD/svg11.dtd">
<svg version="1.1" id="Layer_1" xmlns="http://www.w3.org/2000/svg" xmlns:xlink="http://www.w3.org/1999/xlink" x="0px" y="0px"
	 width="204px" height="204px" viewBox="0 0 204 204" enable-background="new 0 0 204 204" xml:space="preserve">
<g id="energy">
	<g>
		<path fill="none" stroke="#A69E9A" stroke-width="2" stroke-miterlimit="10" d="M120.117,175.102
			c0.004,2.648-2.692,4.815-5.992,4.815h-25c-3.3,0-6.003-2.167-6.008-4.815c-0.004-2.647-2.029-4.814-4.5-4.814s-4.492-2.7-4.492-6
			v-4.37c0-3.3,2.7-6,6-6h43c3.3,0,6,2.7,6,6v4.37c0,3.3-2.028,6-4.508,6S120.113,172.454,120.117,175.102z"/>
	</g>
	<path fill="none" stroke="#A69E9A" stroke-width="2" stroke-miterlimit="10" d="M74.707,107.13
		c7.553,9.499,11.795,19.287,11.795,19.287h0.123h30c0,0,4.229-9.938,11.781-19.438l0.293-0.414
		c6.965-6.965,11.273-16.65,11.273-27.279c0-21.259-17.233-38.523-38.492-38.523S62.988,58.105,62.988,79.364
		C62.988,90.218,67.48,100.132,74.707,107.13z"/>
	<path fill="none" stroke="#A69E9A" stroke-width="2" stroke-miterlimit="10" d="M102.459,24.083
		c-30.745,0-55.751,24.923-55.751,55.667c0,15.197,9.625,30.167,17,39.292s13.583,24.375,13.583,24.375h24.333h1h24
		c0,0,6.25-15.25,13.625-24.375s17.042-23.97,17.042-39.167c0-30.744-24.923-55.729-55.667-55.729"/>
</g>
</svg>
