<?xml version="1.0" encoding="utf-8"?>
<!-- Generator: Adobe Illustrator 16.0.0, SVG Export Plug-In . SVG Version: 6.00 Build 0)  -->
<!DOCTYPE svg PUBLIC "-//W3C//DTD SVG 1.1//EN" "http://www.w3.org/Graphics/SVG/1.1/DTD/svg11.dtd">
<svg version="1.1" id="Layer_1" xmlns="http://www.w3.org/2000/svg" xmlns:xlink="http://www.w3.org/1999/xlink" x="0px" y="0px"
	 width="204px" height="204px" viewBox="0 0 204 204" enable-background="new 0 0 204 204" xml:space="preserve">
<g id="technology">
	<circle fill="none" stroke="#A69E9A" stroke-width="2" stroke-miterlimit="10" cx="68.292" cy="68.085" r="6.412"/>
	<circle fill="none" stroke="#A69E9A" stroke-width="2" stroke-miterlimit="10" cx="68.292" cy="136.085" r="6.412"/>
	<circle fill="none" stroke="#A69E9A" stroke-width="2" stroke-miterlimit="10" cx="136.292" cy="68.085" r="6.411"/>
	<path fill="none" stroke="#A69E9A" stroke-width="2" stroke-miterlimit="10" d="M117.72,96.046l-29.071,28.741
		c1.567,3.093,2.451,6.592,2.451,10.297c0,12.599-10.212,22.809-22.808,22.809s-22.807-10.21-22.807-22.809
		c0-12.597,10.211-22.806,22.807-22.806c3.579,0,6.966,0.824,9.98,2.294l19.318-18.688"/>
	<path fill="none" stroke="#A69E9A" stroke-width="2" stroke-miterlimit="10" d="M96.423,116.826l29.266-28.545
		c3.064,1.624,6.546,2.57,10.251,2.638c12.596,0.229,22.99-9.794,23.219-22.389c0.229-12.593-9.793-22.989-22.39-23.218
		c-12.594-0.229-22.986,9.796-23.217,22.389c-0.065,3.579,0.698,6.98,2.112,10.021L96.627,96.696"/>
	<circle fill="none" stroke="#A69E9A" stroke-width="2" stroke-miterlimit="10" cx="134.531" cy="135.855" r="6.412"/>
	<g>
		<path fill="none" stroke="#A69E9A" stroke-width="2" stroke-miterlimit="10" d="M159.98,174.94
			c2.75-0.001,3.394-1.577,1.429-3.502l-15.554-15.244c-3.09,1.572-6.588,2.461-10.293,2.467
			c-12.599,0.017-22.822-10.18-22.839-22.775c-0.018-12.596,10.178-22.82,22.776-22.84c12.597-0.017,22.82,10.181,22.836,22.776
			c0.006,3.579-0.813,6.966-2.278,9.983l15.231,15.704c1.915,1.974,3.48,1.339,3.48-1.411l-0.037-126.098
			c-0.001-2.75-2.252-4.998-5.002-4.996l-47.011,0.037c-2.75,0.002-6.6,1.586-8.556,3.519L88.648,57.787
			c1.567,3.093,2.451,6.592,2.451,10.297c0,12.599-10.212,22.809-22.808,22.809s-22.807-10.21-22.807-22.809
			c0-12.597,10.211-22.806,22.807-22.806c3.579,0,6.966,0.824,9.98,2.294L93.659,32.5c1.964-1.924,1.322-3.499-1.428-3.499h-57.5
			c-2.75,0-5,2.25-5,5v136c0,2.75,2.25,4.999,5,4.998L159.98,174.94z"/>
	</g>
</g>
</svg>
