<?xml version="1.0" encoding="utf-8"?>
<!-- Generator: Adobe Illustrator 16.0.0, SVG Export Plug-In . SVG Version: 6.00 Build 0)  -->
<!DOCTYPE svg PUBLIC "-//W3C//DTD SVG 1.1//EN" "http://www.w3.org/Graphics/SVG/1.1/DTD/svg11.dtd">
<svg version="1.1" id="Layer_1" xmlns="http://www.w3.org/2000/svg" xmlns:xlink="http://www.w3.org/1999/xlink" x="0px" y="0px"
	 width="204px" height="204px" viewBox="0 0 204 204" enable-background="new 0 0 204 204" xml:space="preserve">
<g id="experimental">
	<path fill="none" stroke="#A69E9A" stroke-width="2" stroke-miterlimit="10" d="M23.626,138.5c0,21,17.533,39.163,39.162,39.163
		c21.63,0,39.163-18.163,39.163-39.163H23.626z"/>
	<path fill="none" stroke="#A69E9A" stroke-width="2" stroke-miterlimit="10" d="M69.871,91.33l21.896-41.895l21.79,11.388
		l-20.962,40.108l0,0c10.704,8.398,17.605,21.341,17.961,36.005c0.632,26.056-19.978,47.688-46.033,48.319
		c-26.055,0.632-47.688-19.977-48.319-46.033c-0.631-26.055,19.978-47.688,46.032-48.318c2.396-0.059,4.754,0.063,7.062,0.353
		L69.871,91.33z"/>
	<polygon fill="none" stroke="#A69E9A" stroke-width="2" stroke-miterlimit="10" points="119.964,64.173 84.315,45.541 
		89.351,35.896 124.998,54.53 	"/>
	<line fill="none" stroke="#A69E9A" stroke-width="2" stroke-miterlimit="10" x1="97.622" y1="63.291" x2="105.923" y2="67.629"/>
	<line fill="none" stroke="#A69E9A" stroke-width="2" stroke-miterlimit="10" x1="91.988" y1="74.07" x2="100.289" y2="78.409"/>
	<line fill="none" stroke="#A69E9A" stroke-width="2" stroke-miterlimit="10" x1="86.353" y1="84.854" x2="94.653" y2="89.192"/>
	<polyline fill="none" stroke="#A69E9A" stroke-width="2" stroke-miterlimit="10" points="113.663,48.5 113.663,28.5 138.663,28.5 
		138.663,92.5 	"/>
	<line fill="none" stroke="#A69E9A" stroke-width="2" stroke-miterlimit="10" x1="113.663" y1="92.5" x2="113.663" y2="61.5"/>
	<rect x="106.663" y="18.5" fill="none" stroke="#A69E9A" stroke-width="2" stroke-miterlimit="10" width="40" height="10"/>
	<path fill="none" stroke="#A69E9A" stroke-width="2" stroke-miterlimit="10" d="M79.078,182.681
		c2.771,1.644,6.425,2.819,10.835,2.819h81.822c14.85,0,20.433-10.338,12.405-22.832l-45.167-70.234"/>
	<g>
		<line fill="none" stroke="#A69E9A" stroke-width="2" stroke-miterlimit="10" x1="114.343" y1="92.047" x2="103.202" y2="112.24"/>
	</g>
	<g>
		<path fill="none" stroke="#A69E9A" stroke-width="2" stroke-miterlimit="10" d="M90.663,177h84.181
			c3.85,0,5.293-2.647,3.206-5.883l-23.472-36.393"/>
	</g>
	<line fill="none" stroke="#A69E9A" stroke-width="2" stroke-miterlimit="10" x1="110.663" y1="135.5" x2="154.663" y2="135.5"/>
	<line fill="none" stroke="#A69E9A" stroke-width="2" stroke-miterlimit="10" x1="126.663" y1="39.5" x2="134.663" y2="39.5"/>
	<line fill="none" stroke="#A69E9A" stroke-width="2" stroke-miterlimit="10" x1="126.663" y1="50.5" x2="134.663" y2="50.5"/>
	<line fill="none" stroke="#A69E9A" stroke-width="2" stroke-miterlimit="10" x1="126.663" y1="62.5" x2="134.663" y2="62.5"/>
	<line fill="none" stroke="#A69E9A" stroke-width="2" stroke-miterlimit="10" x1="126.663" y1="74.5" x2="134.663" y2="74.5"/>
</g>
</svg>
