<?xml version="1.0" encoding="utf-8"?>
<!-- Generator: Adobe Illustrator 16.0.0, SVG Export Plug-In . SVG Version: 6.00 Build 0)  -->
<!DOCTYPE svg PUBLIC "-//W3C//DTD SVG 1.1//EN" "http://www.w3.org/Graphics/SVG/1.1/DTD/svg11.dtd">
<svg version="1.1" id="Layer_1" xmlns="http://www.w3.org/2000/svg" xmlns:xlink="http://www.w3.org/1999/xlink" x="0px" y="0px"
	 width="143px" height="23px" viewBox="0 0 143 23" enable-background="new 0 0 143 23" xml:space="preserve">
<g>
	<polygon fill="#1C1C1A" points="6.515,5.211 6.515,9.341 10.71,9.341 10.71,13.797 6.515,13.797 6.515,22.415 0.693,22.415 
		0.693,0.755 12.726,0.755 12.726,5.211 	"/>
	<rect x="14.157" y="0.755" fill="#1C1C1A" width="5.822" height="21.66"/>
	<polygon fill="#1C1C1A" points="30.808,22.415 28.889,15.749 26.483,22.415 20.986,22.415 25.474,11.553 21.312,0.755 
		27.295,0.755 29.149,7.423 31.458,0.755 36.987,0.755 32.532,11.033 36.824,22.415 	"/>
	<polygon fill="#1C1C1A" points="46.874,22.415 44.955,15.749 42.548,22.415 37.052,22.415 41.54,11.553 37.377,0.755 43.361,0.755 
		45.215,7.423 47.524,0.755 53.053,0.755 48.597,11.033 52.89,22.415 	"/>
	<rect x="54.386" y="0.755" fill="#1C1C1A" width="5.821" height="21.66"/>
	<polygon fill="#1C1C1A" points="62.483,22.415 62.483,0.755 74.874,0.755 74.874,5.471 68.306,5.471 68.306,9.276 72.564,9.276 
		72.564,13.373 68.306,13.373 68.306,17.407 74.874,17.407 74.874,22.415 	"/>
	<polygon fill="#5DB688" points="91.104,5.569 91.104,22.415 85.281,22.415 85.281,5.569 81.216,5.569 81.216,0.755 95.199,0.755 
		95.199,5.569 	"/>
	<polygon fill="#5DB688" points="96.664,22.415 96.664,0.755 109.055,0.755 109.055,5.471 102.485,5.471 102.485,9.276 
		106.746,9.276 106.746,13.373 102.485,13.373 102.485,17.407 109.055,17.407 109.055,22.415 	"/>
	<path fill="#5DB688" d="M118.193,22.969c-4.357,0-7.545-2.667-7.545-6.668V6.87c0-4,3.188-6.667,7.545-6.667
		c4.131,0,6.765,2.537,6.765,6.277v2.439h-5.171V6.447c0-0.846-0.553-1.431-1.594-1.431c-1.04,0-1.594,0.585-1.594,1.431v10.278
		c0,0.844,0.554,1.43,1.594,1.43c1.041,0,1.594-0.586,1.594-1.43v-2.473h5.171v2.44C124.958,20.431,122.324,22.969,118.193,22.969"
		/>
	<polygon fill="#5DB688" points="136.178,22.415 136.178,14.48 132.731,14.48 132.731,22.415 126.91,22.415 126.91,0.755 
		132.731,0.755 132.731,9.536 136.178,9.536 136.178,0.755 142,0.755 142,22.415 	"/>
</g>
</svg>
