<?xml version="1.0" encoding="utf-8"?>
<!-- Generator: Adobe Illustrator 16.0.0, SVG Export Plug-In . SVG Version: 6.00 Build 0)  -->
<!DOCTYPE svg PUBLIC "-//W3C//DTD SVG 1.1//EN" "http://www.w3.org/Graphics/SVG/1.1/DTD/svg11.dtd">
<svg version="1.1" id="Layer_1" xmlns="http://www.w3.org/2000/svg" xmlns:xlink="http://www.w3.org/1999/xlink" x="0px" y="0px"
	 width="199px" height="57px" viewBox="0 0 199 57" enable-background="new 0 0 199 57" xml:space="preserve">
<g>
	<g>
		<g>
			<defs>
				<rect id="SVGID_1_" x="86.972" y="7.576" width="19.761" height="37.184"/>
			</defs>
			<clipPath id="SVGID_2_">
				<use xlink:href="#SVGID_1_"  overflow="visible"/>
			</clipPath>
			<g clip-path="url(#SVGID_2_)">
				<defs>
					<rect id="SVGID_3_" x="86.972" y="7.576" width="19.761" height="37.184"/>
				</defs>
				<clipPath id="SVGID_4_">
					<use xlink:href="#SVGID_3_"  overflow="visible"/>
				</clipPath>
				<path clip-path="url(#SVGID_4_)" fill="#ACD4AC" d="M104.972,42.408h-16.24l-0.087-0.552c-0.046-0.296-1.106-7.279,1.231-10.082
					c0.899-1.079,1.925-1.896,2.83-2.618c1.249-0.994,2.234-1.779,2.234-2.718v-0.546c0-0.939-0.985-1.725-2.234-2.72
					c-0.905-0.721-1.931-1.538-2.83-2.618c-2.337-2.803-1.277-9.785-1.231-10.082l0.087-0.552h16.24l0.086,0.552
					c0.047,0.297,1.107,7.279-1.229,10.082c-0.898,1.079-1.925,1.896-2.829,2.617c-1.249,0.995-2.235,1.781-2.235,2.72v0.546
					c0,0.938,0.986,1.725,2.235,2.72c0.904,0.72,1.931,1.537,2.829,2.616c2.337,2.803,1.276,9.786,1.229,10.082L104.972,42.408z
					 M89.857,41.103h13.988c0.265-2.183,0.466-6.711-1.018-8.492c-0.816-0.979-1.787-1.751-2.643-2.433
					c-1.462-1.164-2.728-2.171-2.728-3.739v-0.545c0-1.57,1.266-2.576,2.728-3.741c0.855-0.682,1.826-1.456,2.643-2.432
					c1.483-1.783,1.282-6.311,1.018-8.493H89.857c-0.266,2.183-0.467,6.71,1.019,8.493c0.815,0.977,1.786,1.75,2.643,2.433
					c1.462,1.166,2.726,2.171,2.726,3.74v0.545c0,1.568-1.263,2.575-2.726,3.739c-0.857,0.682-1.828,1.456-2.643,2.433
					C89.39,34.392,89.592,38.921,89.857,41.103"/>
				<rect x="86.972" y="7.576" clip-path="url(#SVGID_4_)" fill="#ACD4AC" width="19.761" height="1.583"/>
				<rect x="86.972" y="43.178" clip-path="url(#SVGID_4_)" fill="#ACD4AC" width="19.761" height="1.582"/>
				<path clip-path="url(#SVGID_4_)" fill="#ACD4AC" d="M97.232,40.185V24.02c0.577-0.955,1.532-1.723,2.471-2.473
					c0.828-0.659,1.767-1.406,2.529-2.322c0.579-0.693,0.883-2.043,0.987-3.605H90.484c0.104,1.562,0.408,2.912,0.986,3.605
					c0.765,0.917,1.701,1.663,2.53,2.322c0.939,0.75,1.894,1.518,2.472,2.473v16.145"/>
				<path clip-path="url(#SVGID_4_)" fill="#ACD4AC" d="M92.386,35.371c0,0-0.602,4.8,4.419,4.8
					C96.805,40.171,98.056,35.371,92.386,35.371"/>
				<path clip-path="url(#SVGID_4_)" fill="#ACD4AC" d="M102.464,34.291c-5.171,0-5.65,3.254-5.555,4.923
					c0.874-2.519,3.255-3.075,3.255-3.075c-2.273,1.374-2.74,3.855-2.771,4.032C103.169,39.947,102.464,34.291,102.464,34.291"/>
			</g>
		</g>
	</g>
	<path fill="#ACD4AC" d="M0,18.287h5.766v17.788h2.255V18.287h5.869v-1.948H0V18.287z"/>
	<path fill="#ACD4AC" d="M28.45,36.075v-2.077c0,0-1.026,0.128-2.691,0.128h-6.253v-7.304h7.304v-1.948h-7.304v-6.612h8.585v-2.051
		c0,0-1.025,0.128-2.691,0.128h-8.15v19.736H28.45z"/>
	<path fill="#ACD4AC" d="M34.883,36.075v-8.254c0.744,0,1.359,0,2.076,0c2.691,0.82,5.024,6.483,7.254,8.254h2.742v-0.053
		c-2.46-1.896-4.485-6.562-6.74-8.381c2.204-0.462,4.434-2.025,4.459-6.049c-0.205-3.486-2.23-5.638-5.459-5.638
		c-1.614,0.026-2.972,0.333-4.332,1.179v-0.795h-2.255v19.736H34.883z M38.676,25.898h-3.793v-6.663
		c1.256-0.846,2.487-1.256,3.973-1.256c2.229,0,3.614,1.436,3.614,3.613C42.444,25.079,40.317,25.873,38.676,25.898z"/>
	<path fill="#ACD4AC" d="M52.646,36.075v-8.254c0.744,0,1.358,0,2.076,0c2.691,0.82,5.023,6.483,7.253,8.254h2.741v-0.053
		c-2.459-1.896-4.484-6.562-6.74-8.381c2.205-0.462,4.434-2.025,4.459-6.049c-0.205-3.486-2.229-5.638-5.459-5.638
		c-1.614,0.026-2.973,0.333-4.331,1.179v-0.795h-2.255v19.736H52.646z M56.439,25.898h-3.793v-6.663
		c1.256-0.846,2.486-1.256,3.973-1.256c2.229,0,3.614,1.436,3.614,3.613C60.208,25.079,58.08,25.873,56.439,25.898z"/>
	<path fill="#ACD4AC" d="M73.895,16.339l-7.279,19.736H69l2.459-6.718h7.202l2.486,6.718h2.384l-7.279-19.736H73.895z
		 M75.074,18.851c0,0.642,0.154,1.23,0.154,1.23l2.717,7.33h-5.766l2.716-7.33C74.971,19.799,75.048,19.337,75.074,18.851z"/>
	<path fill="#ACD4AC" d="M116.835,16.211c-2.332,0-4.228,0.333-5.509,0.461v19.403h2.255c1.974,0,2.538,0,3.588,0
		c6.767,0.076,6.767-4.28,6.767-5.819c0-1.179-0.462-3.383-2.87-4.434c1.152-0.743,1.973-1.974,1.998-4.049
		C122.859,17.467,120.45,16.211,116.835,16.211z M113.581,27.078c1.18,0,2.024,0,3.923,0c3.767,0,4.228,2.332,4.228,3.178
		c0,1.385-0.078,3.87-4.562,3.87c-1.614,0-1.974,0-3.588,0V27.078z M120.886,21.721c-0.205,3.793-3.357,3.409-7.305,3.409v-6.741
		c1.229-0.153,2.768-0.333,4.28-0.205C119.528,18.338,120.859,19.107,120.886,21.721z"/>
	<path fill="#ACD4AC" d="M141.826,29.948V16.339h-2.256v13.609c-0.024,3.82-2.896,4.46-4.331,4.46c-1.461,0-4.358-0.538-4.358-4.512
		V16.339h-2.254v13.609c0.026,5.715,4.434,6.433,6.612,6.433C137.393,36.381,141.801,35.715,141.826,29.948z"/>
	<path fill="#ACD4AC" d="M158.359,36.075v-2.077c0,0-1.026,0.128-2.692,0.128h-6.254v-7.304h7.305v-1.948h-7.305v-6.612H158v-2.051
		c0,0-1.025,0.128-2.69,0.128h-8.151v19.736H158.359z"/>
	<path fill="#ACD4AC" d="M164.792,36.075V20.492l-0.025-0.359l0.18,0.359l9.534,15.557v0.026h2.255V16.339h-2.255v15.532
		l0.026,0.356l-0.179-0.356l-9.536-15.506v-0.026h-2.254v19.736H164.792z"/>
	<path fill="#ACD4AC" d="M187.81,16.339l-7.279,19.736h2.384l2.46-6.718h7.201l2.486,6.718h2.384l-7.278-19.736H187.81z
		 M188.988,18.851c0,0.642,0.153,1.23,0.153,1.23l2.718,7.33h-5.767l2.716-7.33C188.886,19.799,188.963,19.337,188.988,18.851z"/>
</g>
</svg>
